<?xml version="1.0" encoding="utf-8"?>
<!-- Generator: Adobe Illustrator 16.0.0, SVG Export Plug-In . SVG Version: 6.00 Build 0)  -->
<!DOCTYPE svg PUBLIC "-//W3C//DTD SVG 1.1//EN" "http://www.w3.org/Graphics/SVG/1.1/DTD/svg11.dtd">
<svg version="1.1" id="Layer_1" xmlns="http://www.w3.org/2000/svg" xmlns:xlink="http://www.w3.org/1999/xlink" x="0px" y="0px"
	 width="600px" height="400px" viewBox="0 0 600 400" enable-background="new 0 0 600 400" xml:space="preserve">
<path fill="#E84A5F" d="M299.739,202.461h-87.084h-6.433v3.392v27.426h6.433v-27.426h13.854v5.897v11.944v2.359l0,0v5.308h28.204
	h3.464h28.204v-4.276l0,0v-21.232h13.854v27.426h6.432v-27.426v-3.392H299.739z M230.715,205.853
	c-0.495,0.295-0.742,0.59-1.237,0.885v-0.885H230.715z M229.478,211.456c0.743-2.507,3.216-4.423,6.433-5.604h11.628
	c3.463,1.181,6.185,3.244,6.68,5.897l0,0v7.963c-2.969-2.212-7.422-3.539-12.123-3.539c-5.195,0-9.648,1.475-12.618,3.834V211.456z
	 M254.465,224.137v0.59h-24.74c0.742-3.834,5.938-6.783,12.37-6.783C248.28,218.091,253.228,220.598,254.465,224.137z
	 M254.465,226.938v2.358h-24.74v-2.506L254.465,226.938L254.465,226.938z M252.98,205.853h6.186
	c-1.237,0.737-2.227,1.622-2.969,2.654C255.207,207.475,254.218,206.59,252.98,205.853z M257.681,211.75
	c0.496-2.506,2.969-4.717,6.68-5.897h11.628c3.463,1.181,6.185,3.244,6.68,5.897v8.258c-2.969-2.359-7.422-3.834-12.618-3.834
	c-5.195,0-9.648,1.622-12.617,3.981v-8.405H257.681z M257.929,224.874c0.742-3.834,5.938-6.783,12.37-6.783
	c6.432,0,11.628,2.949,12.37,6.783H257.929z M282.916,229.149h-24.74v-2.358h24.74V229.149z M282.916,206.885
	c-0.495-0.295-0.989-0.737-1.484-1.032h1.484V206.885z M256.691,171.94L256.691,171.94c16.576,0,30.183-8.11,30.183-18.137
	c0-4.276-1.979-6.635-3.711-7.962c0,0-0.248-0.148-0.495-0.442l-0.248-0.147c-2.227-1.327-9.401-4.276-25.73-4.276
	c0,0-0.247,0-0.742,0c-4.948,0-21.029,0.295-25.977,4.866c-1.484,1.327-3.464,3.686-3.464,7.962
	C226.509,163.83,240.116,171.94,256.691,171.94z M231.952,146.726L231.952,146.726c4.453-4.128,20.782-4.276,24.245-4.276
	c0.495,0,0.743,0,0.743,0c16.081,0,22.513,3.097,24.245,3.981l0.248,0.147c0.247,0.147,0.495,0.295,0.495,0.295
	c1.237,0.884,3.216,2.949,3.216,7.077c0,9.29-12.617,16.957-27.957,16.957l0,0c-15.338,0-27.956-7.52-27.956-16.957
	C228.735,149.675,230.715,147.61,231.952,146.726z M221.561,202.166l2.474-1.475c-8.907-4.57-12.37-10.468-10.391-17.251
	c0.99-3.244,2.722-5.75,4.206-7.373c0.248-0.147,0.248-0.294,0.495-0.589c2.474-2.949,6.433-5.456,11.133-7.52
	c6.68,4.571,16.576,7.373,27.462,7.373c10.638,0,20.534-2.802,26.966-7.078c4.453,2.064,7.917,4.423,10.391,7.225
	c0.248,0.147,0.248,0.442,0.495,0.589c1.237,1.623,3.216,4.276,4.206,7.373c1.979,6.783-1.732,12.681-10.391,17.251l2.474,1.475
	c17.071-8.846,11.875-20.052,7.917-25.656v-19.758c0-1.622-2.227-2.949-4.948-2.949h-0.989
	c-0.495-11.354-16.576-20.495-36.12-20.495c-19.545,0-35.626,9.142-36.121,20.495h-0.99c-2.721,0-4.948,1.328-4.948,2.949v18.431
	C210.428,180.049,203.006,192.583,221.561,202.166z M293.802,155.72c0.99,0,1.731,0.442,1.731,1.032v16.219
	c-2.474-2.359-5.69-4.423-9.648-6.193c3.958-3.097,6.432-6.93,6.926-10.911h0.99V155.72z M256.691,135.373
	c18.061,0,32.657,8.552,32.657,19.021s-14.597,19.021-32.657,19.021c-18.06,0-32.656-8.552-32.656-19.021
	S238.631,135.373,256.691,135.373z M217.85,156.752c0-0.59,0.742-1.032,1.731-1.032h1.237c0.495,3.981,2.721,7.52,6.432,10.616
	c-3.711,1.622-6.68,3.539-9.401,5.604V156.752z M285.637,199.365v-23.444c0-0.885-0.989-1.622-2.474-1.622h-54.181
	c-1.237,0-2.474,0.737-2.474,1.622v23.297h-7.917v1.917c0,0.885,0.989,1.621,2.474,1.621h7.917h54.428h8.165
	c1.236,0,2.474-0.736,2.474-1.621v-1.917h-8.412V199.365z M256.197,190.813c-2.474,0-4.206-1.179-4.206-2.506
	c0-1.475,1.979-2.507,4.206-2.507c2.474,0,4.206,1.18,4.206,2.507S258.671,190.813,256.197,190.813z"/>
</svg>
